<svg width="173" height="36" viewBox="0 0 173 36" fill="none" xmlns="http://www.w3.org/2000/svg">
<path d="M25.5592 10.1105L23.4923 7.68808L28.5924 3.41519C30.6761 4.9208 32.407 6.85538 33.6841 9.09276L25.5592 10.1105Z" fill="#008EF8"/>
<path d="M9.7885 1.97662L9.97334 1.8841C10.6371 1.54766 11.3261 1.26168 12.0319 1.01775C12.1411 0.975694 12.2503 0.942045 12.3596 0.9084L12.4352 0.883168C12.5444 0.849523 12.6452 0.815882 12.7545 0.782237C12.9813 0.714947 13.2082 0.647648 13.435 0.58877L13.6283 0.538305L13.7291 0.513072C13.998 0.445782 14.2752 0.386911 14.5441 0.336444C14.7121 0.302799 14.8886 0.277552 15.0566 0.243907L15.1575 0.227094L15.3423 0.193442C15.6448 0.151385 15.9389 0.117736 16.2413 0.0840916L16.3254 0.0756979C16.5438 0.0588754 16.7539 0.0420551 16.9723 0.0252326L17.1908 0.0168132C17.5101 -9.24046e-06 17.7705 0 18.0142 0C18.2915 0 18.5771 0.00841019 18.888 0.0252326C18.9552 0.0252326 19.0308 0.0336346 19.0981 0.0420458L19.2241 0.0504652C19.4005 0.0588765 19.577 0.0756886 19.7534 0.0925111C19.8543 0.100922 19.9551 0.117752 20.0559 0.126163L20.1483 0.134557C20.308 0.151379 20.4592 0.168208 20.6104 0.193442C20.7533 0.210264 20.8877 0.235512 21.0306 0.260746C21.1986 0.285979 21.3666 0.319612 21.5347 0.353257L21.7195 0.386909C22.3413 0.521488 22.963 0.681298 23.568 0.883168C23.7108 0.925224 23.8453 0.975676 23.9797 1.02614L24.0721 1.0598C24.131 1.08503 24.1982 1.10187 24.2654 1.1271C25.2064 1.48037 26.1223 1.90092 26.9961 2.4056L18.0142 9.93365L9.0323 2.4056C9.18354 2.32148 9.34318 2.22896 9.49442 2.14485C9.59525 2.07756 9.69608 2.02708 9.7885 1.97662Z" fill="#008EF8"/>
<path d="M7.44432 3.41519L12.7713 7.88155L10.5867 10.1273L2.35263 9.09276C3.62976 6.85538 5.36059 4.9208 7.44432 3.41519Z" fill="#008EF8"/>
<path d="M21.3834 18.1092L20.7532 12.5998L25.7357 11.9522L21.8455 14.1139L22.0808 18.4961L18.6191 22.8447V23.5765L22.8202 25.3849L23.9124 23.3494L30.4745 30.9531C29.4746 31.912 28.3656 32.7531 27.1641 33.4597L26.7187 33.7204L21.8539 27.9419L22.6353 25.898L18.0057 24.8718L13.3761 25.898L14.1576 27.9419L9.28431 33.7288C9.04905 33.5858 8.80539 33.4428 8.57013 33.2914C7.81393 32.8204 7.08295 32.2989 6.40237 31.7269L6.23433 31.584C5.99907 31.3821 5.77222 31.1718 5.54536 30.9531L12.1158 23.3578L13.2081 25.3933L17.4764 23.5513L17.4848 22.8447L13.8635 18.5466L14.1743 14.1223L10.2842 11.9606L15.2666 12.6083L14.6365 18.1176L18.0477 19.2615C18.0645 19.2447 21.3834 18.1092 21.3834 18.1092Z" fill="#008EF8"/>
<path d="M35.6167 21.8605L26.9961 11.7838L34.5496 10.7997C35.8855 13.8698 36.3393 17.2427 35.8519 20.5567C35.7847 21.0025 35.7091 21.4315 35.6167 21.8605Z" fill="#008EF8"/>
<path d="M22.7614 19.2448L27.5338 15.2832L35.0201 23.9467C34.2807 26.0243 33.1716 27.9421 31.7433 29.6159L22.7614 19.2448Z" fill="#008EF8"/>
<path d="M8.51084 15.2917L13.2413 19.2197L4.30136 29.6244C3.50316 28.6907 2.80579 27.6898 2.21764 26.6132C1.74712 25.7636 1.35222 24.8721 1.02454 23.9552L8.51084 15.2917Z" fill="#008EF8"/>
<path d="M0.151245 15.6702C0.369701 13.9964 0.815011 12.3562 1.48718 10.8085L9.04071 11.7927L0.428517 21.8693C0.142845 20.5908 0 19.2871 0 17.9749C0 17.2011 0.0504195 16.4272 0.151245 15.6702Z" fill="#008EF8"/>
<path d="M18.0142 28.9934L20.3752 28.985L25.072 34.5617C22.8371 35.5122 20.4424 36 18.0142 36C15.5692 36 13.1914 35.5206 10.948 34.5617L15.6532 28.985L18.0142 28.9934Z" fill="#008EF8"/>
<path d="M50.5052 32.4592V27.6732H52.5217C52.8074 27.6732 53.0763 27.7237 53.3367 27.8331C53.5972 27.9424 53.8325 28.1022 54.0425 28.3041C54.2526 28.5144 54.4122 28.7583 54.5298 29.0527C54.6475 29.3471 54.7063 29.6835 54.7063 30.0536C54.7063 30.4321 54.6475 30.7602 54.5298 31.0545C54.4122 31.3489 54.2442 31.6013 54.0425 31.8032C53.8325 32.0134 53.5972 32.1648 53.3367 32.2742C53.0763 32.3835 52.799 32.434 52.5217 32.434H50.5052V32.4592ZM51.0514 31.9461H52.5049C52.8494 31.9461 53.1435 31.862 53.3955 31.6854C53.6476 31.5088 53.8409 31.2816 53.9753 30.9957C54.1097 30.7097 54.177 30.3985 54.177 30.062C54.177 29.7172 54.1097 29.406 53.9753 29.12C53.8409 28.834 53.6476 28.6069 53.3955 28.4387C53.1435 28.2704 52.8494 28.1779 52.5049 28.1779H51.0514V31.9461Z" fill="#008EF8"/>
<path d="M56.9918 32.5179C56.6389 32.5179 56.3364 32.4338 56.0759 32.2656C55.8154 32.0973 55.6138 31.8702 55.4626 31.5927C55.3197 31.3067 55.2441 30.9954 55.2441 30.6506C55.2441 30.3057 55.3197 29.9861 55.4626 29.7085C55.6054 29.431 55.807 29.2039 56.0759 29.0356C56.3364 28.8674 56.6473 28.7833 56.9918 28.7833C57.2858 28.7833 57.5463 28.8422 57.7563 28.9599C57.9664 29.0777 58.1428 29.2291 58.2773 29.431V28.8422H58.815V32.4506H58.2773V31.8702C58.1428 32.0637 57.9664 32.2151 57.7563 32.3328C57.5463 32.459 57.2858 32.5179 56.9918 32.5179ZM57.059 32.0216C57.3278 32.0216 57.5547 31.9627 57.7395 31.8366C57.9244 31.7104 58.0672 31.5422 58.1596 31.3319C58.2521 31.1216 58.3025 30.8945 58.3025 30.6506C58.3025 30.3982 58.2521 30.1712 58.1596 29.9609C58.0672 29.7506 57.9244 29.5908 57.7395 29.4646C57.5547 29.3385 57.3278 29.2796 57.059 29.2796C56.7985 29.2796 56.5632 29.3385 56.37 29.4646C56.1767 29.5908 56.0339 29.759 55.9331 29.9609C55.8323 30.1712 55.7818 30.3982 55.7818 30.6506C55.7818 30.8945 55.8323 31.1216 55.9331 31.3319C56.0339 31.5422 56.1767 31.7104 56.37 31.8366C56.5632 31.9627 56.7985 32.0216 57.059 32.0216Z" fill="#008EF8"/>
<path d="M60.1509 32.4591V29.3217H59.4115V28.8422H60.1509V27.5469H60.6886V28.8422H61.5204V29.3217H60.6886V32.4591H60.1509Z" fill="#008EF8"/>
<path d="M63.5621 32.5179C63.2093 32.5179 62.9068 32.4338 62.6463 32.2656C62.3859 32.0973 62.1842 31.8702 62.033 31.5927C61.8901 31.3067 61.8145 30.9954 61.8145 30.6506C61.8145 30.3057 61.8901 29.9861 62.033 29.7085C62.1758 29.431 62.3774 29.2039 62.6463 29.0356C62.9068 28.8674 63.2177 28.7833 63.5621 28.7833C63.8562 28.7833 64.1167 28.8422 64.3267 28.9599C64.5368 29.0777 64.7132 29.2291 64.8477 29.431V28.8422H65.3854V32.4506H64.8477V31.8702C64.7132 32.0637 64.5368 32.2151 64.3267 32.3328C64.1167 32.459 63.8562 32.5179 63.5621 32.5179ZM63.6294 32.0216C63.8982 32.0216 64.1251 31.9627 64.3099 31.8366C64.4948 31.7104 64.6376 31.5422 64.7301 31.3319C64.8225 31.1216 64.8729 30.8945 64.8729 30.6506C64.8729 30.3982 64.8225 30.1712 64.7301 29.9609C64.6376 29.7506 64.4948 29.5908 64.3099 29.4646C64.1251 29.3385 63.8982 29.2796 63.6294 29.2796C63.3689 29.2796 63.1336 29.3385 62.9404 29.4646C62.7471 29.5908 62.6043 29.759 62.5035 29.9609C62.4027 30.1712 62.3522 30.3982 62.3522 30.6506C62.3522 30.8945 62.4027 31.1216 62.5035 31.3319C62.6043 31.5422 62.7471 31.7104 62.9404 31.8366C63.142 31.9627 63.3689 32.0216 63.6294 32.0216Z" fill="#008EF8"/>
<path d="M69.6957 32.5178C69.2252 32.5178 68.8387 32.4505 68.5447 32.3243C68.2506 32.1982 68.0321 32.0215 67.8809 31.7944C67.7296 31.5673 67.6456 31.315 67.6288 31.029H68.1918C68.2086 31.2561 68.2842 31.4496 68.4186 31.5926C68.5614 31.7356 68.7379 31.8365 68.9731 31.9038C69.2084 31.9711 69.4521 32.0047 69.7293 32.0047C70.1326 32.0047 70.4519 31.9374 70.6872 31.7944C70.9224 31.6514 71.0401 31.4412 71.0401 31.1636C71.0401 30.9954 70.9813 30.8608 70.8636 30.7514C70.746 30.6505 70.5864 30.5664 70.3931 30.4991C70.1999 30.4318 69.9814 30.3729 69.7545 30.314C69.5277 30.2552 69.2924 30.1963 69.0572 30.1374C68.8219 30.0785 68.6119 29.9944 68.4186 29.9019C68.2254 29.8094 68.0657 29.6832 67.9481 29.5318C67.8305 29.3804 67.7716 29.1869 67.7716 28.9514C67.7716 28.5645 67.9229 28.2449 68.2254 28.001C68.5278 27.757 68.9731 27.6309 69.5697 27.6309C69.9898 27.6309 70.3427 27.6982 70.62 27.8243C70.8972 27.9505 71.0989 28.1187 71.2333 28.329C71.3678 28.5393 71.4434 28.758 71.4602 29.0019H70.9057C70.8804 28.758 70.7544 28.5561 70.5443 28.3879C70.3343 28.2197 70.0066 28.1355 69.5697 28.1355C69.3008 28.1355 69.0824 28.1608 68.9143 28.2112C68.7463 28.2617 68.6203 28.329 68.5278 28.4131C68.4354 28.4972 68.3766 28.5813 68.3514 28.6739C68.3178 28.7664 68.301 28.8505 68.301 28.9346C68.301 29.0944 68.3598 29.2206 68.4774 29.3215C68.5951 29.4225 68.7547 29.4982 68.9479 29.5655C69.1412 29.6327 69.3597 29.6916 69.5949 29.7421C69.8302 29.7926 70.0654 29.8514 70.3007 29.9187C70.536 29.986 70.746 30.0617 70.9392 30.1626C71.1325 30.2636 71.2921 30.3898 71.4098 30.5412C71.5274 30.6926 71.5862 30.8944 71.5862 31.1299C71.5862 31.5757 71.4182 31.9122 71.0821 32.1561C70.746 32.4 70.2839 32.5178 69.6957 32.5178Z" fill="#008EF8"/>
<path d="M72.6785 33.889L73.3338 32.4087L71.8635 28.8507H72.46L73.6195 31.8114L74.8042 28.8507H75.4008L73.2666 33.889H72.6785Z" fill="#008EF8"/>
<path d="M77.2073 32.518C76.8712 32.518 76.5939 32.4591 76.367 32.3498C76.1402 32.2404 75.9637 32.0974 75.8461 31.9124C75.7285 31.7357 75.6612 31.5339 75.6444 31.3236H76.2074C76.2242 31.4414 76.2662 31.5591 76.3334 31.6769C76.4006 31.7862 76.5099 31.8787 76.6527 31.9544C76.7955 32.0301 76.9804 32.0554 77.2156 32.0554C77.2913 32.0554 77.3753 32.047 77.4845 32.0301C77.5937 32.0133 77.6946 31.9881 77.7954 31.9544C77.8962 31.9208 77.9802 31.8619 78.0475 31.7778C78.1147 31.7021 78.1483 31.6012 78.1483 31.4834C78.1483 31.332 78.0895 31.2227 77.9718 31.1385C77.8542 31.0544 77.7114 30.9955 77.5265 30.9451C77.3417 30.903 77.1484 30.8526 76.9468 30.8105C76.7451 30.7684 76.5519 30.7096 76.367 30.6423C76.1822 30.575 76.0394 30.4741 75.9217 30.3479C75.8041 30.2217 75.7453 30.0451 75.7453 29.8264C75.7453 29.4984 75.8629 29.246 76.0982 29.061C76.3334 28.8843 76.6863 28.7918 77.1568 28.7918C77.4761 28.7918 77.7366 28.8423 77.9298 28.9432C78.1231 29.0441 78.2827 29.1703 78.3835 29.3217C78.4844 29.4731 78.5516 29.6413 78.5684 29.818H78.0223C78.0055 29.6666 77.9298 29.532 77.7954 29.4227C77.661 29.3133 77.4425 29.2544 77.14 29.2544C76.5687 29.2544 76.283 29.4311 76.283 29.7759C76.283 29.9189 76.3418 30.0283 76.4594 30.1124C76.5771 30.1881 76.7199 30.247 76.9048 30.2974C77.0896 30.3395 77.2829 30.3899 77.4845 30.4236C77.6862 30.4656 77.8794 30.5245 78.0643 30.5918C78.2491 30.6675 78.3919 30.7684 78.5096 30.8946C78.6272 31.0292 78.686 31.2058 78.686 31.4329C78.686 31.7862 78.5516 32.0554 78.2827 32.2404C78.0139 32.4255 77.6526 32.518 77.2073 32.518Z" fill="#008EF8"/>
<path d="M79.7614 32.4591V29.3217H79.022V28.8422H79.7614V27.5469H80.2992V28.8422H81.131V29.3217H80.2992V32.4591H79.7614Z" fill="#008EF8"/>
<path d="M83.2485 32.5179C82.8872 32.5179 82.5595 32.4338 82.2906 32.2656C82.0133 32.0973 81.8033 31.8702 81.652 31.5927C81.5008 31.3067 81.4252 30.9954 81.4252 30.6506C81.4252 30.3057 81.5008 29.9861 81.6436 29.7085C81.7865 29.431 81.9965 29.2039 82.2654 29.0356C82.5343 28.8674 82.8536 28.7833 83.2148 28.7833C83.5845 28.7833 83.9038 28.8674 84.1727 29.0356C84.4415 29.2039 84.6432 29.4226 84.786 29.7085C84.9289 29.9945 85.0045 30.3057 85.0045 30.6506V30.8693H81.9797C82.0133 31.0796 82.0806 31.273 82.1898 31.4497C82.299 31.6263 82.4418 31.7693 82.6267 31.8702C82.8115 31.9712 83.0216 32.0216 83.2653 32.0216C83.5173 32.0216 83.7358 31.9628 83.9038 31.8534C84.0803 31.7441 84.2147 31.5926 84.3071 31.416H84.8953C84.7692 31.7356 84.576 32.0048 84.2987 32.2067C84.0299 32.4169 83.677 32.5179 83.2485 32.5179ZM81.9881 30.3646H84.4416C84.3911 30.0534 84.2651 29.8011 84.0551 29.5908C83.845 29.3805 83.5677 29.2796 83.2148 29.2796C82.862 29.2796 82.5931 29.3805 82.383 29.5908C82.173 29.8011 82.047 30.0534 81.9881 30.3646Z" fill="#008EF8"/>
<path d="M85.6682 32.4591V28.8507H86.2059V29.3974C86.29 29.2544 86.416 29.1199 86.5924 28.9853C86.7689 28.8507 87.0041 28.7918 87.2982 28.7918C87.5419 28.7918 87.7603 28.8591 87.962 28.9853C88.1636 29.1114 88.3233 29.2965 88.4409 29.5236C88.4913 29.4395 88.5669 29.347 88.6678 29.2292C88.7686 29.1115 88.903 29.0105 89.0794 28.9264C89.2475 28.8423 89.4491 28.8002 89.6844 28.8002C89.9197 28.8002 90.1297 28.8591 90.3314 28.9769C90.533 29.0946 90.7011 29.2713 90.8271 29.49C90.9531 29.7171 91.0204 29.9778 91.0204 30.2806V32.4591H90.4826V30.289C90.4826 29.9862 90.3986 29.7423 90.2306 29.5572C90.0625 29.3722 89.8441 29.2797 89.592 29.2797C89.3315 29.2797 89.0963 29.3722 88.903 29.5488C88.7098 29.7254 88.6173 29.9778 88.6173 30.2974V32.4591H88.0796V30.289C88.0796 29.9862 87.9956 29.7423 87.8191 29.5572C87.6511 29.3722 87.4326 29.2797 87.1806 29.2797C86.9201 29.2797 86.6849 29.3722 86.4916 29.5488C86.2984 29.7254 86.2059 29.9778 86.2059 30.2974V32.4591H85.6682Z" fill="#008EF8"/>
<path d="M93.2469 32.518C92.9108 32.518 92.6336 32.4591 92.4067 32.3498C92.1798 32.2404 92.0034 32.0974 91.8858 31.9124C91.7681 31.7357 91.7009 31.5339 91.6841 31.3236H92.2471C92.2639 31.4414 92.3059 31.5591 92.3731 31.6769C92.4403 31.7862 92.5495 31.8787 92.6924 31.9544C92.8352 32.0301 93.02 32.0554 93.2553 32.0554C93.3309 32.0554 93.4149 32.047 93.5242 32.0301C93.6334 32.0133 93.7342 31.9881 93.835 31.9544C93.9359 31.9208 94.0199 31.8619 94.0871 31.7778C94.1543 31.7021 94.1879 31.6012 94.1879 31.4834C94.1879 31.332 94.1291 31.2227 94.0115 31.1385C93.8939 31.0544 93.751 30.9955 93.5662 30.9451C93.3813 30.903 93.1881 30.8526 92.9864 30.8105C92.7848 30.7684 92.5915 30.7096 92.4067 30.6423C92.2218 30.575 92.079 30.4741 91.9614 30.3479C91.8438 30.2217 91.7849 30.0451 91.7849 29.8264C91.7849 29.4984 91.9026 29.246 92.1378 29.061C92.3731 28.8843 92.726 28.7918 93.1965 28.7918C93.5158 28.7918 93.7762 28.8423 93.9695 28.9432C94.1627 29.0441 94.3224 29.1703 94.4232 29.3217C94.524 29.4731 94.5912 29.6413 94.6081 29.818H94.0619C94.0451 29.6666 93.9695 29.532 93.835 29.4227C93.7006 29.3133 93.4822 29.2544 93.1797 29.2544C92.6083 29.2544 92.3227 29.4311 92.3227 29.7759C92.3227 29.9189 92.3815 30.0283 92.4991 30.1124C92.6167 30.1881 92.7596 30.247 92.9444 30.2974C93.1293 30.3395 93.3225 30.3899 93.5242 30.4236C93.7258 30.4656 93.9191 30.5245 94.1039 30.5918C94.2888 30.6675 94.4316 30.7684 94.5492 30.8946C94.6669 31.0292 94.7257 31.2058 94.7257 31.4329C94.7257 31.7862 94.5912 32.0554 94.3224 32.2404C94.0535 32.4255 93.6922 32.518 93.2469 32.518Z" fill="#008EF8"/>
<path d="M50.4884 21.6673H53.3283V7.30096L50.4884 10.1524V21.6673Z" fill="#008EF8"/>
<path d="M131.224 21.6682H134.073V7.18411H131.224V21.6682Z" fill="#008EF8"/>
<path d="M77.5097 7.15918V10.0106H83.3996V21.6685H86.2395V10.0106H91.9362V7.15918H77.5097Z" fill="#008EF8"/>
<path d="M96.0784 7.15918V7.22648H96.0616V20.2302H96.0784V21.5928H110.505V18.7414H98.9099V15.8143H110.505V12.9713H98.9099V10.0106H110.505V7.15918H96.0784Z" fill="#008EF8"/>
<path d="M118.924 7.22552H116.084V20.2293H116.101V21.5919H127.721V18.7405H118.924V7.22552Z" fill="#008EF8"/>
<path d="M70.5443 16.8318L61.7725 8.05047L60.8987 7.18411H59.0166V21.6682H61.8565V12.1636L70.5443 20.8608L70.5779 20.8944L70.6031 20.9196L71.4265 21.6682H73.3842V7.18411H70.5443V16.8318Z" fill="#008EF8"/>
<path d="M170.219 7.18411H170.152V16.8318L161.38 8.05047L160.506 7.18411H158.624V21.6682H161.472V12.1636L170.152 20.8608L170.194 20.8944L170.219 20.9196L171.034 21.6682H173V9.96822L170.219 7.18411Z" fill="#008EF8"/>
<path d="M146.348 6.81314C142.063 6.81314 138.585 10.2197 138.585 14.4253C138.585 18.6309 142.055 22.0374 146.348 22.0374C150.633 22.0374 154.112 18.6309 154.112 14.4253C154.112 10.2197 150.633 6.81314 146.348 6.81314ZM146.348 19.2449C143.634 19.2449 141.433 17.0833 141.433 14.4253C141.433 11.759 143.634 9.60567 146.348 9.60567C149.062 9.60567 151.264 11.7674 151.264 14.4253C151.264 17.0833 149.062 19.2449 146.348 19.2449Z" fill="#008EF8"/>
</svg>
