<?xml version="1.0" encoding="UTF-8"?>
<!DOCTYPE svg PUBLIC "-//W3C//DTD SVG 1.1//EN" "http://www.w3.org/Graphics/SVG/1.1/DTD/svg11.dtd">
<svg xmlns="http://www.w3.org/2000/svg" xmlns:xlink="http://www.w3.org/1999/xlink">
<symbol id="burger" viewBox="0 0 24 24">
	<path stroke="#fff" stroke-linecap="round" stroke-linejoin="round" stroke-width="1.5" d="M3 12h18M3 6h18M3 18h18"/>
</symbol>
<symbol id="chevron-down" viewBox="0 0 18 18">
	<path fill="rgba(0,0,0,0)" stroke="currentColor" stroke-linecap="round" stroke-linejoin="round" stroke-width="1.5" d="m4.5 7.75 4.5 4.5 4.5-4.5"/>
</symbol>
<symbol id="cross" viewBox="0 0 24 24">
	<path stroke="#fff" stroke-linecap="round" stroke-linejoin="round" stroke-width="1.5" d="M18 6 6 18M6 6l12 12"/>
</symbol>
<symbol id="search" viewBox="0 0 14 14">
	<g fill="rgba(0,0,0,0)" stroke="currentColor" stroke-linecap="round" stroke-linejoin="round">
		<path d="M6.417 11.083a4.667 4.667 0 1 0 0-9.333 4.667 4.667 0 0 0 0 9.333ZM12.25 12.25 9.713 9.712"/>
	</g>
</symbol>
<symbol id="shopping-bag" viewBox="0 0 18 18">
	<path fill="currentColor" d="M6 1.5a3 3 0 0 0-2.4 1.2l-.75 1a3 3 0 0 0-.6 1.8V15a1.5 1.5 0 0 0 1.5 1.5h10.5a1.5 1.5 0 0 0 1.5-1.5V5.5a3 3 0 0 0-.6-1.8l-.75-1A3 3 0 0 0 12 1.5H6Z"/>
	<path stroke="#fff" stroke-linecap="round" stroke-linejoin="round" stroke-width="1.5" d="M2.25 4.5h13.5"/>
	<path fill="currentColor" stroke="#fff" stroke-linecap="round" stroke-linejoin="round" stroke-width="1.5" d="M12 7.5a3 3 0 0 1-6 0"/>
</symbol>
<symbol id="telegram" viewBox="0 0 24 24">
	<path fill="currentColor" d="m10.278 14.12-.264 3.723c.378 0 .542-.163.739-.358l1.775-1.697 3.679 2.694c.674.376 1.15.178 1.332-.62l2.414-11.315h.001c.214-.998-.36-1.388-1.018-1.143L4.743 10.838c-.969.376-.954.916-.165 1.16l3.629 1.129 8.428-5.274c.397-.263.758-.117.461.145l-6.818 6.122Z"/>
</symbol>
<symbol id="whatsapp" viewBox="0 0 24 24">
	<path fill="currentColor" fill-rule="evenodd" d="M17.307 6.672a7.385 7.385 0 0 0-5.258-2.18c-4.097 0-7.431 3.334-7.433 7.433 0 1.31.342 2.588.992 3.716l-1.054 3.851 3.94-1.033a7.426 7.426 0 0 0 3.552.904h.003c4.097 0 7.431-3.334 7.433-7.432a7.387 7.387 0 0 0-2.175-5.259Zm-5.258 11.436h-.002a6.172 6.172 0 0 1-3.145-.861l-.225-.134-2.339.613.624-2.28-.146-.233a6.162 6.162 0 0 1-.945-3.288 6.187 6.187 0 0 1 6.18-6.177c1.65 0 3.202.644 4.368 1.811a6.14 6.14 0 0 1 1.808 4.371 6.187 6.187 0 0 1-6.178 6.178Zm3.389-4.627c-.186-.093-1.099-.542-1.27-.604-.17-.062-.293-.093-.417.093s-.48.604-.588.728c-.109.124-.217.14-.403.046-.185-.092-.784-.289-1.493-.921a5.606 5.606 0 0 1-1.033-1.287c-.109-.186-.001-.277.081-.379.201-.25.402-.511.464-.635s.031-.233-.015-.326c-.046-.092-.418-1.007-.573-1.379-.15-.362-.304-.313-.418-.318a7.425 7.425 0 0 0-.356-.007.682.682 0 0 0-.495.232c-.17.186-.65.636-.65 1.55s.666 1.797.759 1.921c.092.124 1.31 2 3.172 2.804.443.192.79.306 1.059.392.445.141.85.121 1.17.073.357-.053 1.098-.45 1.253-.883.155-.434.155-.806.109-.883-.047-.078-.17-.124-.356-.217Z" clip-rule="evenodd"/>
</symbol>
</svg>